<svg xmlns="http://www.w3.org/2000/svg" xmlns:xlink="http://www.w3.org/1999/xlink" width="1080" zoomAndPan="magnify" viewBox="0 0 810 809.999993" height="1080" preserveAspectRatio="xMidYMid meet" version="1.0"><path fill="#000000" d="M 405.003906 25.3125 C 190.5625 25.3125 16.878906 199 16.878906 413.4375 C 16.878906 585.183594 127.976562 730.246094 282.257812 781.671875 C 301.664062 785.066406 308.941406 773.421875 308.941406 763.234375 C 308.941406 754.015625 308.457031 723.453125 308.457031 690.949219 C 210.941406 708.898438 185.710938 667.175781 177.949219 645.34375 C 173.582031 634.183594 154.660156 599.738281 138.167969 590.519531 C 124.582031 583.242188 105.175781 565.292969 137.679688 564.804688 C 168.246094 564.320312 190.078125 592.945312 197.355469 604.589844 C 232.285156 663.292969 288.078125 646.796875 310.398438 636.609375 C 313.792969 611.378906 323.980469 594.402344 335.140625 584.699219 C 248.78125 574.992188 158.542969 541.519531 158.542969 393.058594 C 158.542969 350.851562 173.582031 315.921875 198.324219 288.753906 C 194.445312 279.050781 180.859375 239.265625 202.207031 185.898438 C 202.207031 185.898438 234.710938 175.710938 308.941406 225.683594 C 339.988281 216.949219 372.980469 212.582031 405.972656 212.582031 C 438.960938 212.582031 471.953125 216.949219 503.003906 225.683594 C 577.230469 175.226562 609.738281 185.898438 609.738281 185.898438 C 631.082031 239.265625 617.5 279.050781 613.617188 288.753906 C 638.359375 315.921875 653.402344 350.367188 653.402344 393.058594 C 653.402344 542.003906 562.675781 574.992188 476.320312 584.699219 C 490.390625 596.824219 502.519531 620.113281 502.519531 656.5 C 502.519531 708.414062 502.03125 750.136719 502.03125 763.234375 C 502.03125 773.421875 509.308594 785.554688 528.71875 781.671875 C 682.027344 730.246094 793.125 584.699219 793.125 413.4375 C 793.125 199 619.441406 25.3125 405.003906 25.3125 Z M 405.003906 25.3125 " fill-opacity="1" fill-rule="evenodd"/></svg>