<svg xmlns="http://www.w3.org/2000/svg" xmlns:xlink="http://www.w3.org/1999/xlink" width="1080" zoomAndPan="magnify" viewBox="0 0 810 809.999993" height="1080" preserveAspectRatio="xMidYMid meet" version="1.0"><path fill="#000000" d="M 75.9375 0 L 734.0625 0 C 735.304688 0 736.546875 0.03125 737.789062 0.0898438 C 739.03125 0.152344 740.269531 0.242188 741.503906 0.367188 C 742.742188 0.488281 743.976562 0.640625 745.203125 0.820312 C 746.433594 1.003906 747.660156 1.214844 748.878906 1.460938 C 750.097656 1.703125 751.308594 1.972656 752.515625 2.277344 C 753.71875 2.578125 754.917969 2.910156 756.105469 3.269531 C 757.296875 3.628906 758.476562 4.019531 759.644531 4.4375 C 760.816406 4.859375 761.972656 5.304688 763.121094 5.78125 C 764.269531 6.257812 765.40625 6.757812 766.53125 7.289062 C 767.652344 7.820312 768.761719 8.378906 769.859375 8.964844 C 770.957031 9.550781 772.035156 10.164062 773.101562 10.804688 C 774.167969 11.441406 775.21875 12.105469 776.25 12.796875 C 777.285156 13.488281 778.300781 14.203125 779.296875 14.945312 C 780.296875 15.683594 781.277344 16.449219 782.238281 17.238281 C 783.199219 18.027344 784.136719 18.835938 785.058594 19.671875 C 785.980469 20.507812 786.878906 21.363281 787.757812 22.242188 C 788.636719 23.121094 789.492188 24.019531 790.328125 24.941406 C 791.164062 25.863281 791.972656 26.800781 792.761719 27.761719 C 793.550781 28.722656 794.316406 29.703125 795.054688 30.703125 C 795.796875 31.699219 796.511719 32.714844 797.203125 33.75 C 797.894531 34.78125 798.558594 35.832031 799.195312 36.898438 C 799.835938 37.964844 800.449219 39.042969 801.035156 40.140625 C 801.617188 41.238281 802.175781 42.347656 802.710938 43.46875 C 803.242188 44.59375 803.742188 45.730469 804.21875 46.878906 C 804.695312 48.027344 805.140625 49.183594 805.5625 50.355469 C 805.980469 51.523438 806.371094 52.703125 806.730469 53.894531 C 807.089844 55.082031 807.421875 56.28125 807.722656 57.484375 C 808.027344 58.691406 808.296875 59.902344 808.539062 61.121094 C 808.78125 62.339844 808.996094 63.566406 809.179688 64.796875 C 809.359375 66.023438 809.511719 67.257812 809.632812 68.496094 C 809.757812 69.730469 809.847656 70.96875 809.910156 72.210938 C 809.96875 73.453125 810 74.695312 810 75.9375 L 810 734.0625 C 810 735.304688 809.96875 736.546875 809.910156 737.789062 C 809.847656 739.03125 809.757812 740.269531 809.632812 741.503906 C 809.511719 742.742188 809.359375 743.976562 809.179688 745.203125 C 808.996094 746.433594 808.78125 747.660156 808.539062 748.878906 C 808.296875 750.097656 808.027344 751.308594 807.722656 752.515625 C 807.421875 753.71875 807.089844 754.917969 806.730469 756.105469 C 806.371094 757.296875 805.980469 758.476562 805.5625 759.644531 C 805.140625 760.816406 804.695312 761.972656 804.21875 763.121094 C 803.742188 764.269531 803.242188 765.40625 802.710938 766.53125 C 802.175781 767.652344 801.617188 768.761719 801.035156 769.859375 C 800.449219 770.957031 799.835938 772.035156 799.195312 773.101562 C 798.558594 774.167969 797.894531 775.21875 797.203125 776.25 C 796.511719 777.285156 795.796875 778.300781 795.054688 779.296875 C 794.316406 780.296875 793.550781 781.277344 792.761719 782.238281 C 791.972656 783.199219 791.164062 784.136719 790.328125 785.058594 C 789.492188 785.980469 788.636719 786.878906 787.757812 787.757812 C 786.878906 788.636719 785.980469 789.492188 785.058594 790.328125 C 784.136719 791.164062 783.199219 791.972656 782.238281 792.761719 C 781.277344 793.550781 780.296875 794.316406 779.296875 795.054688 C 778.300781 795.796875 777.285156 796.511719 776.25 797.203125 C 775.21875 797.894531 774.167969 798.558594 773.101562 799.195312 C 772.035156 799.835938 770.957031 800.449219 769.859375 801.035156 C 768.761719 801.617188 767.652344 802.175781 766.53125 802.710938 C 765.40625 803.242188 764.269531 803.742188 763.121094 804.21875 C 761.972656 804.695312 760.816406 805.140625 759.644531 805.5625 C 758.476562 805.980469 757.296875 806.371094 756.105469 806.730469 C 754.917969 807.089844 753.71875 807.421875 752.515625 807.722656 C 751.308594 808.027344 750.097656 808.296875 748.878906 808.539062 C 747.65625 808.78125 746.433594 808.996094 745.203125 809.179688 C 743.976562 809.359375 742.742188 809.511719 741.503906 809.632812 C 740.269531 809.757812 739.03125 809.847656 737.789062 809.910156 C 736.546875 809.96875 735.304688 810 734.0625 810 L 75.9375 810 C 74.695312 810 73.453125 809.96875 72.210938 809.910156 C 70.96875 809.847656 69.730469 809.757812 68.496094 809.632812 C 67.257812 809.511719 66.023438 809.359375 64.796875 809.179688 C 63.566406 808.996094 62.339844 808.78125 61.121094 808.539062 C 59.902344 808.296875 58.691406 808.027344 57.484375 807.722656 C 56.28125 807.421875 55.082031 807.089844 53.894531 806.730469 C 52.703125 806.371094 51.523438 805.980469 50.355469 805.5625 C 49.183594 805.140625 48.027344 804.695312 46.878906 804.21875 C 45.730469 803.742188 44.59375 803.242188 43.46875 802.710938 C 42.347656 802.175781 41.238281 801.617188 40.140625 801.035156 C 39.042969 800.449219 37.964844 799.835938 36.898438 799.195312 C 35.832031 798.558594 34.78125 797.894531 33.75 797.203125 C 32.714844 796.511719 31.699219 795.796875 30.703125 795.054688 C 29.703125 794.316406 28.722656 793.550781 27.761719 792.761719 C 26.800781 791.972656 25.863281 791.164062 24.941406 790.328125 C 24.019531 789.492188 23.121094 788.636719 22.242188 787.757812 C 21.363281 786.878906 20.507812 785.980469 19.671875 785.058594 C 18.835938 784.136719 18.027344 783.199219 17.238281 782.238281 C 16.449219 781.277344 15.683594 780.296875 14.945312 779.296875 C 14.203125 778.300781 13.488281 777.285156 12.796875 776.25 C 12.105469 775.21875 11.441406 774.167969 10.804688 773.101562 C 10.164062 772.035156 9.550781 770.957031 8.964844 769.859375 C 8.378906 768.761719 7.820312 767.652344 7.289062 766.53125 C 6.757812 765.40625 6.257812 764.269531 5.78125 763.121094 C 5.304688 761.972656 4.859375 760.816406 4.4375 759.644531 C 4.019531 758.476562 3.628906 757.296875 3.269531 756.105469 C 2.910156 754.917969 2.578125 753.71875 2.277344 752.515625 C 1.972656 751.308594 1.703125 750.097656 1.460938 748.878906 C 1.214844 747.660156 1.003906 746.433594 0.820312 745.203125 C 0.640625 743.976562 0.488281 742.742188 0.367188 741.503906 C 0.242188 740.269531 0.152344 739.03125 0.0898438 737.789062 C 0.03125 736.546875 0 735.304688 0 734.0625 L 0 75.9375 C 0 74.695312 0.03125 73.453125 0.0898438 72.210938 C 0.152344 70.96875 0.242188 69.730469 0.367188 68.496094 C 0.488281 67.257812 0.640625 66.023438 0.820312 64.796875 C 1.003906 63.566406 1.214844 62.339844 1.460938 61.121094 C 1.703125 59.902344 1.972656 58.691406 2.277344 57.484375 C 2.578125 56.28125 2.910156 55.082031 3.269531 53.894531 C 3.628906 52.703125 4.019531 51.523438 4.4375 50.355469 C 4.859375 49.183594 5.304688 48.027344 5.78125 46.878906 C 6.257812 45.730469 6.757812 44.59375 7.289062 43.46875 C 7.820312 42.347656 8.378906 41.238281 8.964844 40.140625 C 9.550781 39.042969 10.164062 37.964844 10.804688 36.898438 C 11.441406 35.832031 12.105469 34.78125 12.796875 33.75 C 13.488281 32.714844 14.203125 31.699219 14.945312 30.703125 C 15.683594 29.703125 16.449219 28.722656 17.238281 27.761719 C 18.027344 26.800781 18.835938 25.863281 19.671875 24.941406 C 20.507812 24.019531 21.363281 23.121094 22.242188 22.242188 C 23.121094 21.363281 24.019531 20.507812 24.941406 19.671875 C 25.863281 18.835938 26.800781 18.027344 27.761719 17.238281 C 28.722656 16.449219 29.703125 15.683594 30.703125 14.945312 C 31.699219 14.203125 32.714844 13.488281 33.75 12.796875 C 34.78125 12.105469 35.832031 11.441406 36.898438 10.804688 C 37.964844 10.164062 39.042969 9.550781 40.140625 8.964844 C 41.238281 8.378906 42.347656 7.820312 43.46875 7.289062 C 44.59375 6.757812 45.730469 6.257812 46.878906 5.78125 C 48.027344 5.304688 49.183594 4.859375 50.355469 4.4375 C 51.523438 4.019531 52.703125 3.628906 53.894531 3.269531 C 55.082031 2.910156 56.28125 2.578125 57.484375 2.277344 C 58.691406 1.972656 59.902344 1.703125 61.121094 1.460938 C 62.339844 1.214844 63.566406 1.003906 64.796875 0.820312 C 66.023438 0.640625 67.257812 0.488281 68.496094 0.367188 C 69.730469 0.242188 70.96875 0.152344 72.210938 0.0898438 C 73.453125 0.03125 74.695312 0 75.9375 0 Z M 75.9375 0 " fill-opacity="1" fill-rule="nonzero"/><path fill="#ffffff" d="M 160.3125 63.28125 C 120.703125 63.28125 88.59375 95.390625 88.59375 135 C 88.59375 174.609375 120.703125 206.71875 160.3125 206.71875 C 199.921875 206.71875 232.03125 174.609375 232.03125 135 C 232.03125 95.390625 199.921875 63.28125 160.3125 63.28125 Z M 160.3125 63.28125 " fill-opacity="1" fill-rule="nonzero"/><path fill="#ffffff" d="M 92.8125 265.78125 C 90.484375 265.78125 88.59375 267.667969 88.59375 270 L 88.59375 708.75 C 88.59375 711.078125 90.484375 712.96875 92.8125 712.96875 L 227.8125 712.96875 C 230.140625 712.96875 232.03125 711.078125 232.03125 708.75 L 232.03125 270 C 232.03125 267.667969 230.140625 265.78125 227.8125 265.78125 Z M 92.8125 265.78125 " fill-opacity="1" fill-rule="nonzero"/><path fill="#ffffff" d="M 312.1875 265.78125 C 309.859375 265.78125 307.96875 267.667969 307.96875 270 L 307.96875 708.75 C 307.96875 711.078125 309.859375 712.96875 312.1875 712.96875 L 447.1875 712.96875 C 449.515625 712.96875 451.40625 711.078125 451.40625 708.75 L 451.40625 472.5 C 451.40625 455.714844 458.074219 439.621094 469.941406 427.753906 C 481.808594 415.886719 497.90625 409.21875 514.6875 409.21875 C 531.472656 409.21875 547.566406 415.886719 559.433594 427.753906 C 571.300781 439.621094 577.96875 455.714844 577.96875 472.5 L 577.96875 708.75 C 577.96875 711.078125 579.859375 712.96875 582.1875 712.96875 L 717.1875 712.96875 C 719.519531 712.96875 721.40625 711.078125 721.40625 708.75 L 721.40625 417.832031 C 721.40625 335.929688 650.175781 271.855469 568.683594 279.265625 C 543.550781 281.546875 518.699219 287.796875 495.5 297.742188 L 451.40625 316.636719 L 451.40625 270 C 451.40625 267.667969 449.515625 265.78125 447.1875 265.78125 Z M 312.1875 265.78125 " fill-opacity="1" fill-rule="nonzero"/></svg>